<svg width="374" height="170" viewBox="0 0 374 170" fill="none" xmlns="http://www.w3.org/2000/svg">
<path fill-rule="evenodd" clip-rule="evenodd" d="M95.6853 126.596L72.4136 78.2283L45.8226 119.956L95.6853 126.596ZM68.5743 74.9493L43.5721 114.184L40.4949 70.3335L68.5743 74.9493ZM38.854 118.376L35.6608 72.8729L1.33407 106.002L38.854 118.376ZM36.4789 122.857L0.00146008 110.828L7.76259 146.141L36.4789 122.857ZM58.1048 167.324L11.1636 149.82L40.6013 125.952L58.1048 167.324ZM63.5286 167.311L45.6159 124.972L94.9805 131.547L63.5286 167.311ZM71.1233 166.247L100.941 132.34L152.443 139.199L71.1233 166.247ZM78.1057 169.193L160.929 141.646L160.26 169.193H78.1057ZM237.297 169.193H165.262L165.928 141.758L237.297 169.193ZM242.299 165.76L170.715 138.241L207.121 125.276L242.299 165.76ZM248.267 165.005L212.18 123.475L248.267 110.623V165.005ZM253.267 169.193V113.825L300.843 169.193H253.267ZM354.974 149.705L308.787 168.013V103.102L354.974 149.705ZM357.967 145.622L310.877 98.1078L373.24 76.8959L357.967 145.622ZM309.937 93.146L372.016 72.0309L327.674 28.1114L309.937 93.146ZM305.612 90.0045L323.033 26.1271L276.162 30.2749L305.612 90.0045ZM299.123 88.1503L271.438 32.0015L249.992 49.158L299.123 88.1503ZM168.907 69.3617L240.986 48.0365L190.232 2.4008L168.907 69.3617ZM134.073 0.453247H185.605L164.657 66.229L134.073 0.453247ZM129.257 1.95461L159.975 68.0175L88.8621 35.6172L129.257 1.95461ZM153.577 70.5971L85.7492 39.6934L76.1169 70.5971H153.577ZM76.6962 75.5971H158.403L100.779 125.651L76.6962 75.5971ZM162.457 78.6988L105.769 127.939L161.083 135.306L162.457 78.6988ZM203.599 121.223L166.102 134.576L167.436 79.6047L203.599 121.223ZM208.658 119.421L173.713 79.2056L243.669 106.953L208.658 119.421ZM247.944 103.27L172.742 73.4413L243.742 52.4351L247.944 103.27ZM253.032 104.129L248.948 54.7121L300.406 95.5523L253.032 104.129ZM303.787 164.948V100.021L255.509 108.762L303.787 164.948Z" fill="url(#paint0_linear_89_12)"/>
<defs>
<linearGradient id="paint0_linear_89_12" x1="86.5994" y1="158.921" x2="310.749" y2="54.9997" gradientUnits="userSpaceOnUse">
<stop stop-color="#2677F0"/>
<stop offset="1" stop-color="#0EC5FF"/>
</linearGradient>
</defs>
</svg>
