<svg width="716" height="134" viewBox="0 0 716 134" fill="none" xmlns="http://www.w3.org/2000/svg">
<mask id="path-1-inside-1_99_31" fill="white">
<path fill-rule="evenodd" clip-rule="evenodd" d="M293.996 87.569C293.996 87.7351 294.13 87.8698 294.296 87.8698C294.402 87.8698 294.5 87.9251 294.554 88.0156L320.737 131.592C321.28 132.494 322.256 133.047 323.309 133.047H348.389C350.745 133.047 352.181 130.457 350.934 128.458L313.479 68.4356C312.878 67.4727 312.872 66.2532 313.463 65.2844L350.108 5.24592C351.328 3.24682 349.889 0.682983 347.547 0.682983H322.995C321.937 0.682983 320.957 1.24036 320.416 2.14983L294.554 45.6484C294.5 45.7394 294.402 45.7952 294.296 45.7952C294.13 45.7952 293.996 45.9296 293.996 46.0954V87.569ZM398.587 3.68298C398.587 2.02613 397.243 0.682983 395.587 0.682983H373.601C371.945 0.682983 370.601 2.02612 370.601 3.68298V130.047C370.601 131.703 371.945 133.047 373.601 133.047H452.332C453.989 133.047 455.332 131.703 455.332 130.047V112.973C455.332 111.317 453.989 109.973 452.332 109.973H401.587C399.93 109.973 398.587 108.63 398.587 106.973V3.68298ZM500.731 130.975C500.329 132.21 499.177 133.047 497.878 133.047H474.277C472.216 133.047 470.769 131.016 471.442 129.068L515.064 2.70403C515.482 1.49454 516.621 0.682983 517.9 0.682983H549.687C550.967 0.682983 552.106 1.49513 552.523 2.70526L596.084 129.069C596.755 131.017 595.308 133.047 593.248 133.047H569.647C568.347 133.047 567.195 132.209 566.793 130.973L558.34 104.938C557.939 103.701 556.787 102.864 555.487 102.864H512.054C510.755 102.864 509.603 103.7 509.202 104.936L500.731 130.975ZM533.794 30.9301C534.102 30.9301 534.375 31.1288 534.471 31.4221L549.299 77.0925C549.928 79.0307 548.484 81.0189 546.446 81.0189H521.113C519.074 81.0189 517.629 79.0294 518.26 77.0908L533.117 31.4217C533.212 31.1286 533.486 30.9301 533.794 30.9301ZM666.384 0.682983H616.387C614.73 0.682983 613.387 2.02612 613.387 3.68298V130.047C613.387 131.703 614.73 133.047 616.387 133.047H669.938C679.848 133.047 688.186 131.452 694.951 128.264C701.715 125.076 706.821 120.745 710.268 115.273C713.758 109.758 715.503 103.489 715.503 96.4657C715.503 89.9595 714.124 84.3582 711.367 79.6617C708.609 74.9221 705.011 71.2381 700.573 68.6098C696.384 66.1041 691.9 64.6949 687.123 64.3822C686.73 64.3565 686.419 64.0337 686.419 63.64C686.419 63.296 686.658 62.9987 686.993 62.9187C691.37 61.8709 695.272 60.1702 698.699 57.8165C702.318 55.3175 705.162 52.129 707.23 48.2512C709.299 44.3302 710.333 39.7845 710.333 34.6141C710.333 27.9787 708.695 22.1188 705.421 17.0345C702.146 11.9072 697.256 7.90008 690.75 5.01324C684.243 2.1264 676.121 0.682983 666.384 0.682983ZM664.186 110.167H644.372C642.715 110.167 641.372 108.824 641.372 107.167V78.0083C641.372 76.3514 642.715 75.0083 644.372 75.0083H664.833C669.314 75.0083 673.17 75.8054 676.402 77.3996C679.676 78.9938 682.197 81.1913 683.963 83.9919C685.73 86.7926 686.613 90.0241 686.613 93.6865C686.613 98.6846 684.825 102.692 681.249 105.708C677.673 108.681 671.985 110.167 664.186 110.167ZM662.118 56.0715H644.372C642.715 56.0715 641.372 54.7283 641.372 53.0715V26.3037C641.372 24.6469 642.715 23.3037 644.372 23.3037H662.635C668.84 23.3037 673.622 24.7687 676.983 27.6986C680.387 30.6285 682.089 34.4848 682.089 39.2675C682.089 42.7576 681.206 45.7521 679.439 48.2512C677.716 50.7502 675.346 52.6891 672.33 54.0679C669.357 55.4036 665.953 56.0715 662.118 56.0715Z"/>
</mask>
<path fill-rule="evenodd" clip-rule="evenodd" d="M293.996 87.569C293.996 87.7351 294.13 87.8698 294.296 87.8698C294.402 87.8698 294.5 87.9251 294.554 88.0156L320.737 131.592C321.28 132.494 322.256 133.047 323.309 133.047H348.389C350.745 133.047 352.181 130.457 350.934 128.458L313.479 68.4356C312.878 67.4727 312.872 66.2532 313.463 65.2844L350.108 5.24592C351.328 3.24682 349.889 0.682983 347.547 0.682983H322.995C321.937 0.682983 320.957 1.24036 320.416 2.14983L294.554 45.6484C294.5 45.7394 294.402 45.7952 294.296 45.7952C294.13 45.7952 293.996 45.9296 293.996 46.0954V87.569ZM398.587 3.68298C398.587 2.02613 397.243 0.682983 395.587 0.682983H373.601C371.945 0.682983 370.601 2.02612 370.601 3.68298V130.047C370.601 131.703 371.945 133.047 373.601 133.047H452.332C453.989 133.047 455.332 131.703 455.332 130.047V112.973C455.332 111.317 453.989 109.973 452.332 109.973H401.587C399.93 109.973 398.587 108.63 398.587 106.973V3.68298ZM500.731 130.975C500.329 132.21 499.177 133.047 497.878 133.047H474.277C472.216 133.047 470.769 131.016 471.442 129.068L515.064 2.70403C515.482 1.49454 516.621 0.682983 517.9 0.682983H549.687C550.967 0.682983 552.106 1.49513 552.523 2.70526L596.084 129.069C596.755 131.017 595.308 133.047 593.248 133.047H569.647C568.347 133.047 567.195 132.209 566.793 130.973L558.34 104.938C557.939 103.701 556.787 102.864 555.487 102.864H512.054C510.755 102.864 509.603 103.7 509.202 104.936L500.731 130.975ZM533.794 30.9301C534.102 30.9301 534.375 31.1288 534.471 31.4221L549.299 77.0925C549.928 79.0307 548.484 81.0189 546.446 81.0189H521.113C519.074 81.0189 517.629 79.0294 518.26 77.0908L533.117 31.4217C533.212 31.1286 533.486 30.9301 533.794 30.9301ZM666.384 0.682983H616.387C614.73 0.682983 613.387 2.02612 613.387 3.68298V130.047C613.387 131.703 614.73 133.047 616.387 133.047H669.938C679.848 133.047 688.186 131.452 694.951 128.264C701.715 125.076 706.821 120.745 710.268 115.273C713.758 109.758 715.503 103.489 715.503 96.4657C715.503 89.9595 714.124 84.3582 711.367 79.6617C708.609 74.9221 705.011 71.2381 700.573 68.6098C696.384 66.1041 691.9 64.6949 687.123 64.3822C686.73 64.3565 686.419 64.0337 686.419 63.64C686.419 63.296 686.658 62.9987 686.993 62.9187C691.37 61.8709 695.272 60.1702 698.699 57.8165C702.318 55.3175 705.162 52.129 707.23 48.2512C709.299 44.3302 710.333 39.7845 710.333 34.6141C710.333 27.9787 708.695 22.1188 705.421 17.0345C702.146 11.9072 697.256 7.90008 690.75 5.01324C684.243 2.1264 676.121 0.682983 666.384 0.682983ZM664.186 110.167H644.372C642.715 110.167 641.372 108.824 641.372 107.167V78.0083C641.372 76.3514 642.715 75.0083 644.372 75.0083H664.833C669.314 75.0083 673.17 75.8054 676.402 77.3996C679.676 78.9938 682.197 81.1913 683.963 83.9919C685.73 86.7926 686.613 90.0241 686.613 93.6865C686.613 98.6846 684.825 102.692 681.249 105.708C677.673 108.681 671.985 110.167 664.186 110.167ZM662.118 56.0715H644.372C642.715 56.0715 641.372 54.7283 641.372 53.0715V26.3037C641.372 24.6469 642.715 23.3037 644.372 23.3037H662.635C668.84 23.3037 673.622 24.7687 676.983 27.6986C680.387 30.6285 682.089 34.4848 682.089 39.2675C682.089 42.7576 681.206 45.7521 679.439 48.2512C677.716 50.7502 675.346 52.6891 672.33 54.0679C669.357 55.4036 665.953 56.0715 662.118 56.0715Z" fill="#0EC5FF"/>
<path d="M694.951 128.264L693.245 124.646V124.646L694.951 128.264ZM710.268 115.273L706.888 113.134L706.884 113.141L710.268 115.273ZM711.367 79.6617L707.909 81.6732C707.912 81.6778 707.915 81.6824 707.917 81.687L711.367 79.6617ZM700.573 68.6098L698.52 72.0428C698.525 72.0457 698.53 72.0486 698.535 72.0515L700.573 68.6098ZM698.699 57.8165L700.964 61.1138L700.972 61.1081L698.699 57.8165ZM707.23 48.2512L710.76 50.1335C710.763 50.1281 710.766 50.1227 710.768 50.1174L707.23 48.2512ZM705.421 17.0345L702.05 19.1875C702.052 19.1919 702.055 19.1962 702.058 19.2005L705.421 17.0345ZM676.402 77.3996L674.632 80.9868C674.638 80.9899 674.644 80.993 674.651 80.996L676.402 77.3996ZM683.963 83.9919L680.58 86.1259V86.126L683.963 83.9919ZM681.249 105.708L683.806 108.784C683.813 108.778 683.82 108.772 683.828 108.766L681.249 105.708ZM676.983 27.6986L674.355 30.7137C674.361 30.7192 674.367 30.7247 674.374 30.7302L676.983 27.6986ZM679.439 48.2512L676.173 45.9422C676.164 45.9548 676.155 45.9675 676.146 45.9802L679.439 48.2512ZM672.33 54.0679L673.969 57.7166C673.977 57.713 673.985 57.7094 673.993 57.7058L672.33 54.0679ZM686.993 62.9187L687.924 66.8088L686.993 62.9187ZM687.123 64.3822L686.861 68.3737L687.123 64.3822ZM533.117 31.4217L536.921 32.6591L533.117 31.4217ZM518.26 77.0908L522.064 78.3283L518.26 77.0908ZM534.471 31.4221L530.666 32.6573L534.471 31.4221ZM549.299 77.0925L545.495 78.3277L549.299 77.0925ZM509.202 104.936L513.005 106.173L509.202 104.936ZM558.34 104.938L562.145 103.702L558.34 104.938ZM566.793 130.973L562.989 132.208L566.793 130.973ZM596.084 129.069L599.866 127.765L596.084 129.069ZM552.523 2.70526L556.305 1.40164L552.523 2.70526ZM515.064 2.70403L511.283 1.39876L515.064 2.70403ZM500.731 130.975L496.927 129.737L500.731 130.975ZM471.442 129.068L475.223 130.373L471.442 129.068ZM294.554 45.6484L297.992 47.6926L294.554 45.6484ZM320.416 2.14983L316.978 0.105627L320.416 2.14983ZM350.108 5.24592L346.693 3.16201L350.108 5.24592ZM313.479 68.4356L310.085 70.5532L313.479 68.4356ZM313.463 65.2844L310.049 63.2005L313.463 65.2844ZM350.934 128.458L347.541 130.576L350.934 128.458ZM320.737 131.592L317.309 133.652L320.737 131.592ZM294.554 88.0156L297.983 85.9555L294.554 88.0156ZM324.166 129.532L297.983 85.9555L291.125 90.0758L317.309 133.652L324.166 129.532ZM348.389 129.047H323.309V137.047H348.389V129.047ZM310.085 70.5532L347.541 130.576L354.328 126.341L316.872 66.318L310.085 70.5532ZM346.693 3.16201L310.049 63.2005L316.877 67.3683L353.522 7.32983L346.693 3.16201ZM322.995 4.68298H347.547V-3.31702H322.995V4.68298ZM297.992 47.6926L323.854 4.19403L316.978 0.105627L291.116 43.6042L297.992 47.6926ZM289.996 46.0954V87.569H297.996V46.0954H289.996ZM373.601 4.68298H395.587V-3.31702H373.601V4.68298ZM374.601 130.047V3.68298H366.601V130.047H374.601ZM452.332 129.047H373.601V137.047H452.332V129.047ZM451.332 112.973V130.047H459.332V112.973H451.332ZM401.587 113.973H452.332V105.973H401.587V113.973ZM394.587 3.68298V106.973H402.587V3.68298H394.587ZM474.277 137.047H497.878V129.047H474.277V137.047ZM511.283 1.39876L467.661 127.762L475.223 130.373L518.845 4.0093L511.283 1.39876ZM549.687 -3.31702H517.9V4.68298H549.687V-3.31702ZM599.866 127.765L556.305 1.40164L548.741 4.00889L592.302 130.373L599.866 127.765ZM569.647 137.047H593.248V129.047H569.647V137.047ZM554.536 106.173L562.989 132.208L570.598 129.738L562.145 103.702L554.536 106.173ZM512.054 106.864H555.487V98.8641H512.054V106.864ZM504.535 132.212L513.005 106.173L505.398 103.699L496.927 129.737L504.535 132.212ZM553.104 75.8572L538.275 30.1868L530.666 32.6573L545.495 78.3277L553.104 75.8572ZM521.113 85.0189H546.446V77.0189H521.113V85.0189ZM529.313 30.1842L514.456 75.8534L522.064 78.3283L536.921 32.6591L529.313 30.1842ZM616.387 4.68298H666.384V-3.31702H616.387V4.68298ZM617.387 130.047V3.68298H609.387V130.047H617.387ZM669.938 129.047H616.387V137.047H669.938V129.047ZM693.245 124.646C687.158 127.515 679.442 129.047 669.938 129.047V137.047C680.255 137.047 689.214 135.39 696.656 131.882L693.245 124.646ZM706.884 113.141C703.904 117.872 699.43 121.731 693.245 124.646L696.656 131.882C704 128.421 709.739 123.618 713.652 117.405L706.884 113.141ZM711.503 96.4657C711.503 102.792 709.942 108.308 706.888 113.134L713.648 117.412C717.574 111.208 719.503 104.186 719.503 96.4657H711.503ZM707.917 81.687C710.25 85.6596 711.503 90.5325 711.503 96.4657H719.503C719.503 89.3865 717.999 83.0567 714.816 77.6364L707.917 81.687ZM698.535 72.0515C702.349 74.31 705.473 77.4852 707.909 81.6732L714.824 77.6501C711.746 72.359 707.674 68.1663 702.612 65.1681L698.535 72.0515ZM686.861 68.3737C690.993 68.6441 694.864 69.856 698.52 72.0428L702.626 65.1769C697.903 62.3522 692.807 60.7457 687.384 60.3908L686.861 68.3737ZM696.435 54.5192C693.444 56.5731 690.001 58.0855 686.061 59.0286L687.924 66.8088C692.738 65.6563 697.1 63.7673 700.964 61.1138L696.435 54.5192ZM703.701 46.3688C701.933 49.6829 699.521 52.3883 696.426 54.5249L700.972 61.1081C705.116 58.2466 708.391 54.5751 710.76 50.1335L703.701 46.3688ZM706.333 34.6141C706.333 39.2426 705.41 43.1281 703.692 46.385L710.768 50.1174C713.187 45.5324 714.333 40.3265 714.333 34.6141H706.333ZM702.058 19.2005C704.876 23.5767 706.333 28.6693 706.333 34.6141H714.333C714.333 27.2881 712.514 20.661 708.784 14.8686L702.058 19.2005ZM689.127 8.66949C695.04 11.2931 699.266 14.8284 702.05 19.1875L708.792 14.8815C705.027 8.98596 699.471 4.50703 692.372 1.357L689.127 8.66949ZM666.384 4.68298C675.756 4.68298 683.283 6.07643 689.127 8.66949L692.372 1.357C685.204 -1.82362 676.487 -3.31702 666.384 -3.31702V4.68298ZM644.372 114.167H664.186V106.167H644.372V114.167ZM637.372 78.0083V107.167H645.372V78.0083H637.372ZM664.833 71.0083H644.372V79.0083H664.833V71.0083ZM678.171 73.8124C674.272 71.8886 669.781 71.0083 664.833 71.0083V79.0083C668.846 79.0083 672.068 79.7222 674.632 80.9868L678.171 73.8124ZM687.346 81.8579C685.143 78.3653 682.027 75.6897 678.152 73.8032L674.651 80.996C677.325 82.2979 679.25 84.0173 680.58 86.1259L687.346 81.8579ZM690.613 93.6865C690.613 89.3517 689.558 85.364 687.346 81.8579L680.58 86.126C681.902 88.2212 682.613 90.6966 682.613 93.6865H690.613ZM683.828 108.766C688.373 104.932 690.613 99.7717 690.613 93.6865H682.613C682.613 97.5976 681.277 100.451 678.67 102.65L683.828 108.766ZM664.186 114.167C672.338 114.167 679.165 112.642 683.806 108.784L678.692 102.632C676.181 104.719 671.632 106.167 664.186 106.167V114.167ZM644.372 60.0715H662.118V52.0715H644.372V60.0715ZM637.372 26.3037V53.0715H645.372V26.3037H637.372ZM662.635 19.3037H644.372V27.3037H662.635V19.3037ZM679.612 24.6835C675.281 20.9081 669.429 19.3037 662.635 19.3037V27.3037C668.251 27.3037 671.964 28.6293 674.355 30.7137L679.612 24.6835ZM686.089 39.2675C686.089 33.406 683.942 28.4111 679.593 24.667L674.374 30.7302C676.832 32.8459 678.089 35.5637 678.089 39.2675H686.089ZM682.705 50.5601C685.015 47.2936 686.089 43.4641 686.089 39.2675H678.089C678.089 42.051 677.397 44.2106 676.173 45.9422L682.705 50.5601ZM673.993 57.7058C677.603 56.0555 680.561 53.6698 682.732 50.5221L676.146 45.9802C674.87 47.8306 673.089 49.3228 670.667 50.43L673.993 57.7058ZM662.118 60.0715C666.419 60.0715 670.398 59.3212 673.969 57.7166L670.691 50.4193C668.316 51.4861 665.486 52.0715 662.118 52.0715V60.0715ZM645.372 78.0083C645.372 78.5606 644.924 79.0083 644.372 79.0083V71.0083C640.506 71.0083 637.372 74.1423 637.372 78.0083H645.372ZM644.372 106.167C644.924 106.167 645.372 106.615 645.372 107.167H637.372C637.372 111.033 640.506 114.167 644.372 114.167V106.167ZM690.419 63.64C690.419 65.1822 689.354 66.4664 687.924 66.8088L686.061 59.0286C683.962 59.5311 682.419 61.4098 682.419 63.64H690.419ZM687.384 60.3908C689.035 60.4989 690.419 61.8674 690.419 63.64H682.419C682.419 66.2 684.424 68.2142 686.861 68.3737L687.384 60.3908ZM609.387 130.047C609.387 133.913 612.521 137.047 616.387 137.047V129.047C616.939 129.047 617.387 129.494 617.387 130.047H609.387ZM616.387 -3.31702C612.521 -3.31702 609.387 -0.183027 609.387 3.68298H617.387C617.387 4.23527 616.939 4.68298 616.387 4.68298V-3.31702ZM536.921 32.6591C536.48 34.0134 535.218 34.9301 533.794 34.9301V26.9301C531.753 26.9301 529.944 28.2437 529.313 30.1842L536.921 32.6591ZM521.113 77.0189C521.792 77.0189 522.274 77.6821 522.064 78.3283L514.456 75.8534C512.985 80.3767 516.356 85.0189 521.113 85.0189V77.0189ZM538.275 30.1868C537.645 28.245 535.835 26.9301 533.794 26.9301V34.9301C532.369 34.9301 531.106 34.0125 530.666 32.6573L538.275 30.1868ZM545.495 78.3277C545.285 77.6817 545.766 77.0189 546.446 77.0189V85.0189C551.201 85.0189 554.572 80.3798 553.104 75.8572L545.495 78.3277ZM512.054 98.8641C509.023 98.8641 506.336 100.816 505.398 103.699L513.005 106.173C512.871 106.585 512.487 106.864 512.054 106.864V98.8641ZM562.145 103.702C561.208 100.818 558.52 98.8641 555.487 98.8641V106.864C555.053 106.864 554.669 106.585 554.536 106.173L562.145 103.702ZM569.647 129.047C570.08 129.047 570.464 129.326 570.598 129.738L562.989 132.208C563.925 135.093 566.613 137.047 569.647 137.047V129.047ZM592.302 130.373C592.078 129.723 592.561 129.047 593.248 129.047V137.047C598.056 137.047 601.432 132.311 599.866 127.765L592.302 130.373ZM549.687 4.68298C549.26 4.68298 548.88 4.41227 548.741 4.00889L556.305 1.40164C555.331 -1.422 552.674 -3.31702 549.687 -3.31702V4.68298ZM518.845 4.0093C518.706 4.41246 518.327 4.68298 517.9 4.68298V-3.31702C514.914 -3.31702 512.257 -1.42339 511.283 1.39876L518.845 4.0093ZM497.878 137.047C500.91 137.047 503.597 135.095 504.535 132.212L496.927 129.737C497.061 129.325 497.445 129.047 497.878 129.047V137.047ZM474.277 129.047C474.965 129.047 475.447 129.724 475.223 130.373L467.661 127.762C466.091 132.308 469.468 137.047 474.277 137.047V129.047ZM401.587 105.973C402.139 105.973 402.587 106.421 402.587 106.973H394.587C394.587 110.839 397.721 113.973 401.587 113.973V105.973ZM459.332 112.973C459.332 109.107 456.198 105.973 452.332 105.973V113.973C451.78 113.973 451.332 113.526 451.332 112.973H459.332ZM452.332 137.047C456.198 137.047 459.332 133.913 459.332 130.047H451.332C451.332 129.494 451.78 129.047 452.332 129.047V137.047ZM366.601 130.047C366.601 133.913 369.735 137.047 373.601 137.047V129.047C374.154 129.047 374.601 129.494 374.601 130.047H366.601ZM395.587 4.68298C395.034 4.68298 394.587 4.23526 394.587 3.68298H402.587C402.587 -0.183003 399.453 -3.31702 395.587 -3.31702V4.68298ZM373.601 -3.31702C369.735 -3.31702 366.601 -0.183027 366.601 3.68298H374.601C374.601 4.23527 374.154 4.68298 373.601 4.68298V-3.31702ZM294.296 41.7952C291.921 41.7952 289.996 43.7204 289.996 46.0954H297.996C297.996 48.1387 296.339 49.7952 294.296 49.7952V41.7952ZM291.116 43.6042C291.782 42.4826 292.991 41.7952 294.296 41.7952V49.7952C295.812 49.7952 297.217 48.9963 297.992 47.6926L291.116 43.6042ZM645.372 26.3037C645.372 26.856 644.924 27.3037 644.372 27.3037V19.3037C640.506 19.3037 637.372 22.4377 637.372 26.3037H645.372ZM322.995 -3.31702C320.526 -3.31702 318.24 -2.01648 316.978 0.105627L323.854 4.19403C323.674 4.49719 323.347 4.68298 322.995 4.68298V-3.31702ZM353.522 7.32983C356.369 2.66525 353.012 -3.31702 347.547 -3.31702V4.68298C346.766 4.68298 346.287 3.82838 346.693 3.16201L353.522 7.32983ZM644.372 52.0715C644.924 52.0715 645.372 52.5192 645.372 53.0715H637.372C637.372 56.9375 640.506 60.0715 644.372 60.0715V52.0715ZM316.872 66.318C317.072 66.6389 317.074 67.0454 316.877 67.3683L310.049 63.2005C308.669 65.461 308.683 68.3065 310.085 70.5532L316.872 66.318ZM348.389 137.047C353.885 137.047 357.237 131.003 354.328 126.341L347.541 130.576C347.125 129.91 347.604 129.047 348.389 129.047V137.047ZM317.309 133.652C318.574 135.758 320.851 137.047 323.309 137.047V129.047C323.66 129.047 323.985 129.231 324.166 129.532L317.309 133.652ZM294.296 83.8698C296.339 83.8698 297.996 85.526 297.996 87.569H289.996C289.996 89.9442 291.921 91.8698 294.296 91.8698V83.8698ZM294.296 91.8698C292.998 91.8698 291.794 91.1889 291.125 90.0758L297.983 85.9555C297.205 84.6614 295.806 83.8698 294.296 83.8698V91.8698Z" fill="#0EC5FF" mask="url(#path-1-inside-1_99_31)"/>
<path d="M299.416 47.183L298.626 45.7952L271.933 0.682983H240.2L280.852 66.8648L239.424 133.047H271.481L298.626 87.8698L299.416 86.683L313 66.933L299.416 47.183Z" fill="#2677F0"/>
<path d="M111.132 0.682983V133.047H86.9604L29.3745 49.7377H28.405V133.047H0.419922V0.682983H24.9796L82.1131 83.9273H83.2765V0.682983H111.132Z" fill="#2677F0"/>
<path d="M134.254 133.047V0.682983H223.444V23.7561H162.239V55.2959H218.855V78.3691H162.239V109.973H223.703V133.047H134.254Z" fill="#2677F0"/>
</svg>
