<svg width="387" height="180" viewBox="0 0 387 180" fill="none" xmlns="http://www.w3.org/2000/svg">
<path d="M172.094 78.0971L137.154 2.95325M172.094 78.0971L196.025 2.95325M172.094 78.0971L91.2062 41.2431M172.094 78.0971H79.7192M172.094 78.0971L252.981 54.1658M172.094 78.0971L257.767 112.079M172.094 78.0971L257.767 176.693M172.094 78.0971L170.515 143.152M172.094 78.0971L106.946 134.686M137.154 2.95325L91.2062 41.2431M137.154 2.95325H196.025M91.2062 41.2431L79.7192 78.0971M79.7192 78.0971L44.7798 72.3536M79.7192 78.0971L48.6087 126.917M79.7192 78.0971L106.946 134.686M44.7798 72.3536L3.61816 112.079M44.7798 72.3536L48.6087 126.917M3.61816 112.079L13.1906 155.634M3.61816 112.079L48.6087 126.917M13.1906 155.634L69.6682 176.693M13.1906 155.634L48.6087 126.917M69.6682 176.693H169.7M69.6682 176.693L48.6087 126.917M69.6682 176.693L170.515 143.152M69.6682 176.693L71.8576 174.586L106.946 134.686M169.7 176.693H257.767M169.7 176.693L170.515 143.152M257.767 176.693H313.288M257.767 176.693V112.079M257.767 176.693L170.515 143.152M313.288 176.693L366.415 155.634M313.288 176.693V102.028M313.288 176.693L257.767 112.079M366.415 155.634L383.645 78.0971M366.415 155.634L313.288 102.028M383.645 78.0971L333.39 28.3202M383.645 78.0971L313.288 102.028M333.39 28.3202L279.305 33.1065M333.39 28.3202L313.288 102.028M279.305 33.1065L252.981 54.1658M279.305 33.1065L313.288 102.028M252.981 54.1658L196.025 2.95325M252.981 54.1658L257.767 112.079M252.981 54.1658L313.288 102.028M257.767 112.079L313.288 102.028M257.767 112.079L170.515 143.152M48.6087 126.917L170.515 143.152M48.6087 126.917L106.946 134.686" stroke="url(#paint0_linear_30_16)" stroke-width="5"/>
<defs>
<linearGradient id="paint0_linear_30_16" x1="91.7912" y1="166.117" x2="320.914" y2="61.0703" gradientUnits="userSpaceOnUse">
<stop stop-color="#2677F0"/>
<stop offset="1" stop-color="#0EC5FF"/>
</linearGradient>
</defs>
</svg>
