<?xml version="1.0" standalone="no"?>
<!DOCTYPE svg PUBLIC "-//W3C//DTD SVG 20010904//EN"
 "http://www.w3.org/TR/2001/REC-SVG-20010904/DTD/svg10.dtd">
<svg version="1.0" xmlns="http://www.w3.org/2000/svg"
 width="280.000000pt" height="280.000000pt" viewBox="0 0 280.000000 280.000000"
 preserveAspectRatio="xMidYMid meet">
<metadata>
Created by potrace 1.14, written by Peter Selinger 2001-2017
</metadata>
<g transform="translate(0.000000,280.000000) scale(0.100000,-0.100000)"
fill="#000000" stroke="none">
<path d="M1089 1893 c20 -40 85 -179 141 -301 18 -40 36 -69 40 -65 7 8 120
382 120 396 0 4 -72 7 -160 7 l-160 0 19 -37z"/>
<path d="M1028 1911 c-1 -4 -48 -45 -103 -89 -158 -126 -168 -101 87 -219 179
-83 218 -98 212 -81 -3 11 -30 70 -59 132 -29 61 -69 146 -89 189 -35 76 -41
85 -48 68z"/>
<path d="M1401 1838 c-11 -40 -39 -129 -61 -197 -47 -147 -48 -154 -17 -141
12 5 111 35 220 66 108 32 197 61 197 65 0 4 -17 22 -37 40 -21 17 -72 63
-113 100 -131 118 -155 139 -161 139 -3 0 -16 -33 -28 -72z"/>
<path d="M2249 1766 c-2 -2 -44 -7 -94 -11 -141 -10 -177 -14 -180 -17 -1 -2
38 -86 88 -188 l90 -185 24 75 c14 41 26 83 28 92 3 15 30 112 54 195 8 28 2
50 -10 39z"/>
<path d="M2266 1643 c-16 -60 -39 -147 -52 -195 -13 -48 -24 -91 -24 -97 0 -5
33 1 73 15 39 14 79 27 87 29 8 2 64 21 123 42 l108 37 -124 120 c-68 67 -133
129 -144 139 -20 17 -20 16 -47 -90z"/>
<path d="M1877 1678 c-31 -24 -58 -48 -61 -55 -3 -6 48 -52 112 -102 64 -49
132 -102 150 -116 17 -15 32 -24 32 -21 0 12 -165 336 -171 336 -3 0 -31 -19
-62 -42z"/>
<path d="M767 1673 c-13 -23 -58 -174 -54 -180 4 -6 416 -10 462 -4 6 1 -42
25 -105 55 -63 29 -155 72 -203 94 -97 46 -94 45 -100 35z"/>
<path d="M1548 1537 c-114 -35 -209 -65 -212 -68 -3 -3 92 -44 212 -92 267
-106 256 -102 250 -91 -3 5 -9 54 -13 109 -4 55 -9 109 -10 120 -1 11 -3 35
-4 53 0 17 -4 32 -8 31 -5 0 -101 -28 -215 -62z"/>
<path d="M1805 1543 c2 -21 6 -83 10 -138 8 -126 10 -135 38 -129 102 20 186
36 207 40 63 12 63 14 8 57 -29 23 -55 44 -58 47 -12 13 -200 160 -204 160 -3
0 -3 -17 -1 -37z"/>
<path d="M488 1483 c-3 -5 -3 -17 -2 -28 1 -11 5 -67 8 -125 4 -57 9 -106 11
-108 5 -5 144 209 144 223 1 11 -29 21 -96 30 -26 3 -50 8 -54 11 -4 2 -9 1
-11 -3z"/>
<path d="M414 1433 c-16 -16 -64 -61 -106 -101 -45 -42 -72 -75 -65 -77 6 -3
61 -20 120 -39 l108 -34 -6 106 c-6 103 -13 163 -19 169 -2 2 -16 -9 -32 -24z"/>
<path d="M736 1405 c12 -27 41 -88 64 -135 23 -47 46 -95 51 -108 l9 -23 28
21 c15 12 56 48 92 79 36 32 104 93 153 136 48 42 87 78 87 79 0 1 -114 1
-253 1 l-254 0 23 -50z"/>
<path d="M2395 1379 c-99 -33 -183 -64 -187 -68 -4 -4 57 -71 137 -151 98 -97
146 -139 149 -129 3 8 19 77 36 154 16 77 36 166 44 198 7 31 11 57 7 57 -3 0
-87 -28 -186 -61z"/>
<path d="M631 1357 c-24 -39 -60 -96 -79 -125 -36 -55 -36 -64 1 -67 58 -6
158 -17 212 -24 33 -5 61 -8 62 -7 4 4 -141 296 -147 296 -3 0 -25 -33 -49
-73z"/>
<path d="M1179 1373 c-35 -31 -77 -69 -93 -83 -16 -14 -50 -44 -75 -67 -25
-22 -62 -55 -81 -72 -19 -17 -30 -31 -25 -32 6 -1 19 -3 30 -4 147 -18 292
-38 298 -42 4 -2 7 -3 8 -1 3 12 9 358 6 358 -3 0 -33 -26 -68 -57z"/>
<path d="M1347 1405 c51 -67 180 -214 192 -219 7 -4 58 10 113 29 55 19 103
35 107 35 3 1 -39 19 -94 41 -55 23 -113 47 -130 54 -16 7 -70 29 -118 48 -84
34 -87 35 -70 12z"/>
<path d="M1279 1348 c0 -40 -1 -115 -2 -166 -2 -51 -1 -95 1 -96 2 -3 223 71
228 77 4 4 -211 256 -218 256 -5 1 -8 -32 -9 -71z"/>
<path d="M2118 1294 c-3 -2 -49 -11 -113 -20 -22 -3 -68 -11 -102 -18 l-63
-11 51 -60 c28 -33 63 -73 78 -90 14 -16 60 -69 100 -117 41 -49 76 -88 78
-88 2 0 3 92 3 203 0 174 -2 204 -15 204 -8 0 -16 -1 -17 -3z"/>
<path d="M2174 1070 c0 -110 2 -200 4 -200 5 0 134 51 235 93 l58 24 -141 139
c-78 76 -144 140 -149 142 -4 1 -7 -88 -7 -198z"/>
<path d="M248 1121 c14 -58 26 -108 28 -110 2 -3 89 63 104 79 3 3 20 16 38
29 20 14 30 27 24 33 -5 5 -56 24 -114 42 l-104 33 24 -106z"/>
<path d="M1710 1204 c-36 -14 -69 -26 -75 -28 -5 -2 -22 -6 -37 -11 -16 -4
-28 -10 -28 -13 0 -2 21 -30 48 -61 26 -31 56 -67 67 -80 11 -13 40 -46 65
-73 l45 -49 -1 163 c-1 90 -2 166 -3 171 -1 10 -9 9 -81 -19z"/>
<path d="M1829 1190 c-1 -8 -2 -86 -3 -173 l-1 -157 148 0 c81 0 147 3 147 8
0 4 -17 26 -38 48 -34 38 -71 80 -191 219 -63 72 -61 71 -62 55z"/>
<path d="M520 1134 c0 -8 101 -246 107 -254 3 -3 18 11 35 30 17 19 43 49 57
65 47 54 103 125 100 126 -27 5 -50 8 -102 13 -58 6 -79 9 -164 22 -18 3 -33
2 -33 -2z"/>
<path d="M1505 1129 c-11 -5 -60 -23 -109 -40 l-89 -32 124 -50 c289 -115 321
-127 308 -109 -8 9 -37 44 -65 77 -28 33 -62 73 -75 89 -36 42 -68 76 -71 75
-2 0 -12 -4 -23 -10z"/>
<path d="M392 1061 c-46 -38 -84 -72 -84 -77 1 -8 206 -89 254 -99 l28 -7 -46
109 c-25 59 -48 116 -51 126 -3 9 -8 17 -12 16 -3 0 -44 -31 -89 -68z"/>
<path d="M848 1081 c-1 -5 -32 -41 -68 -81 -85 -95 -100 -113 -100 -116 0 -3
21 3 267 85 123 41 221 77 218 80 -6 5 -12 6 -85 16 -25 3 -72 10 -105 15 -75
12 -122 13 -127 1z"/>
<path d="M972 947 l-243 -82 252 -3 c139 -1 253 -1 255 0 1 2 4 39 6 83 2 65
0 80 -12 82 -8 1 -124 -35 -258 -80z"/>
<path d="M1272 945 l-3 -85 222 0 c122 0 220 2 218 4 -2 3 -69 29 -149 59 -80
31 -175 67 -213 81 -37 14 -68 26 -70 26 -1 0 -3 -38 -5 -85z"/>
</g>
</svg>
